<svg width="26" height="23" viewBox="0 0 26 23" fill="none" xmlns="http://www.w3.org/2000/svg">
<path d="M17.0796 22.5352C16.3337 22.5352 15.5651 22.3376 14.8208 22.1466C14.1611 21.9771 13.5387 21.8169 13.0114 21.8169C12.4841 21.8169 11.8601 21.9771 11.2003 22.1466C10.4552 22.3376 9.68581 22.5352 8.93993 22.5352C5.60543 22.5352 2.15637 18.6768 2.15637 12.2214C2.15637 8.40615 4.03975 6.21771 7.32387 6.21771C8.112 6.21771 8.91231 6.41306 9.68581 6.60196C10.2936 6.75063 10.8672 6.89069 11.4156 6.93665L11.3604 7.45162C10.7607 7.40135 10.1351 7.24837 9.52981 7.10041C8.79368 6.92085 8.03237 6.73411 7.32387 6.73411C3.33693 6.73411 2.74137 10.1723 2.74137 12.2214C2.74137 18.3536 5.89306 22.018 8.93993 22.018C9.60212 22.018 10.3317 21.8313 11.037 21.6503C11.7374 21.4707 12.3987 21.3012 13.0081 21.2998H13.0114C13.0114 21.2998 13.0138 21.2998 13.0146 21.2998C13.624 21.3012 14.2846 21.4707 14.9841 21.6503C15.6886 21.8313 16.4174 22.018 17.0796 22.018H17.082C20.1297 22.0173 23.2814 18.3529 23.2814 12.2214C23.2814 10.1723 22.6866 6.73411 18.6989 6.73411C17.8011 6.73411 16.9211 6.90505 15.9892 7.08605C15.0914 7.26058 14.1619 7.44085 13.221 7.45091L13.0122 7.45162C12.9529 7.46383 12.8594 7.42433 12.8042 7.37693C12.7489 7.32809 12.7181 7.26201 12.7181 7.19378V5.22224C12.7181 5.15042 12.7522 5.08219 12.8107 5.03335C12.87 4.98451 12.9456 4.96152 13.0309 4.9644C13.2364 4.97876 18.0334 5.22583 19.1531 1.81999C18.2049 1.64187 15.08 1.29209 13.2576 3.92153L12.7587 3.65147C15.1182 0.250657 19.5504 1.37181 19.5942 1.38402C19.7429 1.42281 19.8307 1.55712 19.7957 1.68999C18.8662 5.2244 14.5145 5.48368 13.3031 5.48655V6.93306C14.1546 6.91367 15.0223 6.74489 15.8624 6.58185C16.7838 6.40229 17.7369 6.21771 18.6981 6.21771C21.9822 6.21771 23.8656 8.40615 23.8656 12.2214C23.8656 18.6761 20.4149 22.5344 17.0796 22.5352C17.0804 22.5352 17.0804 22.5352 17.0796 22.5352ZM20.0102 17.5226L19.4488 17.3797L19.7494 16.4589L20.3109 16.6019L20.0102 17.5226ZM20.6123 15.1374L20.0362 15.0505C20.9544 10.3188 19.4074 9.59051 19.3911 9.58405L19.6243 9.11002C19.8307 9.18615 21.6101 10.0021 20.6123 15.1374ZM11.2092 5.29909C10.6039 5.29909 8.72868 5.20859 7.52375 4.14346C6.10187 2.88656 6.21481 0.804412 6.2205 0.716069C6.22862 0.584633 6.34725 0.479772 6.49593 0.47259C6.5975 0.46828 8.95212 0.368447 10.3732 1.62463C11.7951 2.88081 11.6821 4.96368 11.6764 5.05202C11.6683 5.18346 11.5497 5.28832 11.401 5.2955C11.3864 5.29622 11.3181 5.29909 11.2092 5.29909ZM6.80468 0.98756C6.82093 1.54203 6.96556 2.91744 7.93812 3.77788C8.91393 4.63976 10.4674 4.76545 11.0939 4.77981C11.0768 4.22534 10.933 2.84921 9.96043 1.98949C8.98462 1.12761 7.43112 1.00192 6.80468 0.98756Z" fill="#0D986A"/>
</svg>
