<svg width="26" height="21" viewBox="0 0 26 21" fill="none" xmlns="http://www.w3.org/2000/svg">
<path d="M24.1663 14.8693C25.5957 13.871 25.7322 12.0921 24.468 10.916L26 9.49029L24.468 8.06463L22.9362 9.49029H22.9349C22.8673 9.42739 22.7903 9.38202 22.7181 9.32577C22.7289 9.2423 22.75 9.15369 22.75 9.07294C22.75 6.60177 20.8384 4.55613 18.317 4.12516C17.8535 1.7789 15.6543 0 13 0C10.7624 0 8.84227 1.26326 8.0171 3.06484C7.87117 3.05395 7.73142 3.02431 7.58322 3.02431C4.5916 3.02431 2.16677 5.28075 2.16677 8.06463C2.16677 8.9311 2.42255 9.73254 2.8353 10.4442C2.41215 11.2483 2.16677 12.1493 2.16677 13.1053C2.16677 14.2079 2.48917 15.2398 3.04362 16.1296H0V18.1459H2.16677L2.76543 19.2603C3.03193 19.7566 3.73782 20.1619 4.33322 20.1619H21.6668C22.2622 20.1619 22.9681 19.7563 23.2346 19.2603L23.8332 18.1459H26V16.1296H22.3606L24.1663 14.8693ZM21.4032 10.916L22.9349 12.3413C23.0981 12.4931 23.1783 12.6574 23.1657 12.8158C23.154 12.9752 23.0493 13.1279 22.865 13.2568L18.7486 16.1296H16.2721L20.4204 10.9798C20.5592 10.8095 20.722 10.713 20.8933 10.7012C21.0646 10.6894 21.2414 10.7641 21.4032 10.916ZM7.58322 5.04062C7.65212 5.05635 7.74735 5.06724 7.84355 5.07389L9.39672 5.19002L10.0093 3.8563C10.5222 2.73882 11.6964 2.01631 13 2.01631C14.5639 2.01631 15.9032 3.05607 16.1866 4.48929L16.4564 5.85658L17.9257 6.1076C19.3391 6.34985 20.3853 7.42287 20.5494 8.72242C19.849 8.81708 19.1792 9.16155 18.6875 9.77095L15.0384 14.2983C15.1222 13.9124 15.1668 13.5135 15.1668 13.1053C15.1668 9.76399 12.2574 7.05663 8.66677 7.05663C7.02585 7.05663 5.53118 7.62671 4.38718 8.56092C4.35857 8.39761 4.33322 8.2343 4.33322 8.06463C4.33322 6.39703 5.79117 5.04062 7.58322 5.04062ZM4.33322 13.1053C4.33322 10.8785 6.2738 9.07294 8.66677 9.07294C11.0597 9.07294 13 10.8785 13 13.1053C13 14.3162 12.4137 15.3904 11.506 16.1296H5.82823C4.91953 15.3904 4.33322 14.3162 4.33322 13.1053Z" fill="#0D986A"/>
</svg>
