<svg width="26" height="24" viewBox="0 0 26 24" fill="none" xmlns="http://www.w3.org/2000/svg">
<path d="M26 12.8139C25.9973 12.2904 25.9631 11.7674 25.8973 11.2474C25.8776 11.1022 25.8005 10.9688 25.6807 10.8724C25.5609 10.776 25.4067 10.7233 25.2475 10.7245H24.7003V7.73957C24.6969 7.11768 24.4821 6.5123 24.086 6.00798C23.6899 5.50366 23.1321 5.1256 22.4908 4.9266L24.0504 2.68673C24.124 2.58086 24.1593 2.45638 24.1513 2.33101C24.1434 2.20564 24.0927 2.08575 24.0063 1.98841C23.9199 1.89107 23.8023 1.82124 23.6702 1.78884C23.5381 1.75645 23.3983 1.76314 23.2706 1.80797L20.3501 2.82165L18.7671 0.279705C18.7054 0.193743 18.6214 0.12319 18.5228 0.0743722C18.4241 0.0255547 18.3138 0 18.2017 0C18.0896 0 17.9793 0.0255547 17.8806 0.0743722C17.7819 0.12319 17.698 0.193743 17.6363 0.279705L16.0584 2.82165L13.1328 1.80797C13.0051 1.76314 12.8652 1.75645 12.7331 1.78884C12.6011 1.82124 12.4835 1.89107 12.3971 1.98841C12.3107 2.08575 12.2599 2.20564 12.252 2.33101C12.2441 2.45638 12.2794 2.58086 12.3529 2.68673L13.9126 4.9266C13.2888 5.12046 12.7441 5.48441 12.3512 5.96992C11.9583 6.45543 11.7358 7.03943 11.7135 7.64405V7.6751C11.7135 7.69659 11.707 7.71689 11.707 7.73957V10.7245H2.70252C2.54326 10.7233 2.38909 10.776 2.26929 10.8724C2.1495 10.9688 2.0724 11.1022 2.05266 11.2474C1.98867 11.7675 1.95612 12.2905 1.95518 12.8139C1.9614 13.475 2.03142 14.1342 2.16444 14.7839C1.49499 15.0271 0.926037 15.458 0.538469 16.0153C0.150902 16.5726 -0.0355571 17.228 0.00560162 17.8882C0.00560162 19.7783 0.923204 23.4676 3.13533 23.8473C3.21413 23.8614 3.2942 23.8686 3.37448 23.8688C3.75861 23.8429 4.12871 23.7252 4.44804 23.5273C4.67296 23.3835 4.93256 23.2922 5.20448 23.2611C5.47206 23.3004 5.72785 23.3902 5.95572 23.5249C6.33861 23.761 6.79508 23.8755 7.25544 23.8509C7.59725 23.7911 7.92268 23.6694 8.21277 23.4929C8.50286 23.3164 8.7518 23.0887 8.94508 22.8229C10.5215 23.4977 12.2384 23.8508 13.9776 23.858C14.2375 23.858 14.4975 23.8365 14.7574 23.8222C14.8201 23.843 14.8858 23.8551 14.9524 23.858H21.451C22.3127 23.858 23.1392 23.5436 23.7486 22.9838C24.3579 22.424 24.7003 21.6648 24.7003 20.8731V17.782C25.5531 16.243 25.9984 14.5408 26 12.8139ZM23.4006 7.73957V9.03741L18.1354 5.94863H21.451C21.968 5.94863 22.4639 6.13732 22.8295 6.47318C23.1952 6.80905 23.4006 7.26458 23.4006 7.73957ZM16.1221 4.11948C16.267 4.17003 16.4268 4.17134 16.5727 4.12318C16.7185 4.07501 16.8409 3.98054 16.9176 3.85681L18.2017 1.78051L19.491 3.85681C19.5677 3.98054 19.69 4.07501 19.8359 4.12318C19.9817 4.17134 20.1415 4.17003 20.2864 4.11948L21.902 3.56071L21.0741 4.75467H15.3293L14.5014 3.56071L16.1221 4.11948ZM14.9524 5.94863H15.7192L23.4006 10.4546V10.7245H19.0309L13.0379 7.42078C13.1191 7.0084 13.3551 6.63524 13.705 6.36625C14.0548 6.09726 14.4962 5.94948 14.9524 5.94863ZM13.0028 8.79384L16.512 10.7245H13.0028V8.79384ZM7.06438 22.67C6.88768 22.6237 6.71851 22.5558 6.56139 22.4683C6.15194 22.234 5.68584 22.0962 5.20448 22.0671C4.70788 22.0891 4.22696 22.2339 3.81248 22.4862C3.67661 22.5662 3.52975 22.6292 3.37578 22.6736C2.19433 22.4707 1.30532 19.6302 1.30532 17.8882C1.30532 16.9462 1.67704 15.7391 4.44155 15.5397C4.44235 15.9592 4.48586 16.3777 4.57152 16.7898C4.60342 16.9223 4.6835 17.0408 4.79855 17.1259C4.91361 17.211 5.05678 17.2575 5.20448 17.2578C5.25084 17.2578 5.29705 17.253 5.34225 17.2435C5.51032 17.21 5.65709 17.1167 5.7504 16.984C5.8437 16.8513 5.87594 16.69 5.84004 16.5355C5.77675 16.2027 5.74457 15.8656 5.74387 15.5278C8.71373 15.6699 9.10364 16.9223 9.10364 17.8882C9.10364 19.7604 8.32381 22.4862 7.06438 22.67ZM9.57804 21.7794C9.74666 21.4088 9.88524 21.0273 9.99265 20.6379C11.3457 21.2277 12.8329 21.5114 14.3297 21.4652C15.8265 21.419 17.2896 21.0443 18.5966 20.3725C19.9035 19.7007 21.0165 18.7512 21.8423 17.6034C22.6681 16.4556 23.1828 15.1429 23.3434 13.775C23.3533 13.6969 23.3464 13.6178 23.3229 13.5421C23.2995 13.4665 23.26 13.3959 23.2067 13.3343C23.1534 13.2727 23.0875 13.2214 23.0126 13.1833C22.9376 13.1452 22.8553 13.1211 22.7702 13.1124C22.685 13.1023 22.5985 13.108 22.5158 13.1293C22.4331 13.1505 22.3559 13.1868 22.2889 13.2361C22.2218 13.2853 22.1662 13.3465 22.1254 13.4159C22.0846 13.4853 22.0595 13.5616 22.0515 13.6401C21.9094 14.8435 21.4499 15.9969 20.7128 17.0003C19.9758 18.0036 18.9835 18.8267 17.8219 19.3981C16.6603 19.9695 15.3645 20.272 14.0468 20.2794C12.7292 20.2868 11.4295 19.9988 10.2604 19.4404C10.3482 18.9268 10.396 18.4081 10.4034 17.8882C10.4034 16.3433 9.59234 14.5189 5.86994 14.3255C5.9216 14.0814 5.99551 13.8418 6.09089 13.6091C6.14965 13.4622 6.14331 13.3001 6.07324 13.1575C6.00317 13.0149 5.87497 12.9033 5.71622 12.8466C5.55747 12.79 5.38086 12.7929 5.22439 12.8546C5.06792 12.9164 4.94409 13.0321 4.87955 13.1769C4.72665 13.5487 4.6156 13.934 4.54812 14.3267C4.16969 14.3444 3.79287 14.3842 3.41997 14.446C3.31562 13.9072 3.2604 13.3612 3.2549 12.8139C3.2549 12.55 3.2705 12.2229 3.29259 11.9184H24.6626C24.6847 12.2229 24.7003 12.55 24.7003 12.8139C24.7062 14.4604 24.2613 16.0819 23.4064 17.5291C22.5515 18.9764 21.3142 20.2028 19.8082 21.0957C18.3022 21.9885 16.5759 22.5191 14.7882 22.6386C13.0005 22.758 11.2089 22.4626 9.57804 21.7794ZM23.4006 20.8731C23.4006 21.3481 23.1952 21.8037 22.8295 22.1395C22.4639 22.4754 21.968 22.6641 21.451 22.6641H19.3857C20.9456 21.9387 22.3154 20.911 23.4006 19.6517V20.8731Z" fill="#0D986A"/>
<path d="M18.8515 13.1124C18.6792 13.1124 18.5139 13.1753 18.392 13.2872C18.2701 13.3992 18.2017 13.551 18.2017 13.7094V14.9033C18.2017 15.0617 18.2701 15.2135 18.392 15.3255C18.5139 15.4374 18.6792 15.5003 18.8515 15.5003C19.0239 15.5003 19.1892 15.4374 19.311 15.3255C19.4329 15.2135 19.5014 15.0617 19.5014 14.9033V13.7094C19.5014 13.551 19.4329 13.3992 19.311 13.2872C19.1892 13.1753 19.0239 13.1124 18.8515 13.1124Z" fill="#0D986A"/>
<path d="M11.0532 13.1124C10.8809 13.1124 10.7156 13.1753 10.5937 13.2872C10.4718 13.3992 10.4034 13.551 10.4034 13.7094V14.9033C10.4034 15.0617 10.4718 15.2135 10.5937 15.3255C10.7156 15.4374 10.8809 15.5003 11.0532 15.5003C11.2256 15.5003 11.3909 15.4374 11.5127 15.3255C11.6346 15.2135 11.7031 15.0617 11.7031 14.9033V13.7094C11.7031 13.551 11.6346 13.3992 11.5127 13.2872C11.3909 13.1753 11.2256 13.1124 11.0532 13.1124Z" fill="#0D986A"/>
<path d="M14.9524 14.3064C14.78 14.3064 14.6147 14.3693 14.4929 14.4812C14.371 14.5932 14.3025 14.745 14.3025 14.9033V16.0973C14.3025 16.2556 14.371 16.4075 14.4929 16.5194C14.6147 16.6314 14.78 16.6943 14.9524 16.6943C15.1247 16.6943 15.29 16.6314 15.4119 16.5194C15.5338 16.4075 15.6022 16.2556 15.6022 16.0973V14.9033C15.6022 14.745 15.5338 14.5932 15.4119 14.4812C15.29 14.3693 15.1247 14.3064 14.9524 14.3064Z" fill="#0D986A"/>
</svg>
