<svg width="41" height="27" viewBox="0 0 41 27" fill="none" xmlns="http://www.w3.org/2000/svg">
<path d="M11.3933 9.40469C11.1517 9.40469 10.9558 9.58993 10.9558 9.81842C10.9558 10.0469 11.1517 10.2321 11.3933 10.2321H19.1445L16.3365 19.5259C16.1106 20.2739 15.77 20.9717 15.2734 21.4414C14.8895 21.8044 14.4027 22.0312 13.7898 22.0312H6.37187C5.75894 22.0312 5.2722 21.8044 4.88831 21.4414C4.3917 20.9718 4.05111 20.2739 3.82513 19.5259L1.01719 10.2321H8.76833C9.00995 10.2321 9.20584 10.0469 9.20584 9.81842C9.20584 9.58993 9.00995 9.40469 8.76833 9.40469H0.446378C0.403844 9.40389 0.360455 9.40899 0.317421 9.42061C0.085101 9.48337 -0.0494269 9.71238 0.0169409 9.93207L2.98433 19.7522C3.24723 20.6224 3.65645 21.4466 4.26967 22.0264C4.81135 22.5387 5.5007 22.8587 6.37188 22.8587H13.7898C14.661 22.8587 15.3503 22.5387 15.892 22.0264C16.5053 21.4465 16.9145 20.6223 17.1774 19.7522L20.1385 9.95144C20.1535 9.9097 20.1616 9.86498 20.1616 9.81845C20.1616 9.58996 19.9657 9.40472 19.7241 9.40472L11.3933 9.40469Z" fill="#0D986A"/>
<path d="M9.35572 3H10.8059C11.0882 3 11.3446 3.10892 11.5301 3.28438C11.7157 3.45983 11.8309 3.70223 11.8309 3.9692V11.9773C11.8309 12.2443 11.7157 12.4867 11.5301 12.6622C11.3446 12.8376 11.0882 12.9466 10.8059 12.9466H9.35572C9.07342 12.9466 8.81707 12.8376 8.63152 12.6622C8.44598 12.4867 8.3308 12.2443 8.3308 11.9773V3.9692C8.3308 3.70223 8.44596 3.45983 8.63153 3.28438C8.81707 3.10892 9.07342 3 9.35572 3ZM10.8059 3.82747H9.35572C9.31495 3.82747 9.27755 3.84355 9.25019 3.86941C9.22282 3.8953 9.20582 3.93066 9.20582 3.9692V11.9773C9.20582 12.0159 9.22282 12.0513 9.25018 12.0771C9.27755 12.103 9.31495 12.1191 9.35572 12.1191H10.8059C10.8467 12.1191 10.8841 12.103 10.9115 12.0771C10.9388 12.0513 10.9558 12.0159 10.9558 11.9773V3.9692C10.9558 3.93066 10.9388 3.8953 10.9115 3.86941C10.8841 3.84355 10.8467 3.82747 10.8059 3.82747Z" fill="#0D986A"/>
<path d="M14.1383 13.3679H15.7114C15.8322 13.3679 15.9302 13.4606 15.9302 13.5748V15.0624C15.9302 15.1766 15.8322 15.2693 15.7114 15.2693H14.1383C14.0175 15.2693 13.9196 15.1766 13.9196 15.0624V13.5748C13.9196 13.4606 14.0175 13.3679 14.1383 13.3679ZM15.4927 13.7817H14.3571V14.8555H15.4927V13.7817Z" fill="#0D986A"/>
<path d="M5.80454 13.7816H4.66897V14.8555H5.80454V13.7816ZM4.45022 13.3679H6.02329C6.1441 13.3679 6.24205 13.4605 6.24205 13.5747V15.0623C6.24205 15.1766 6.1441 15.2692 6.02329 15.2692H4.45022C4.32941 15.2692 4.23146 15.1766 4.23146 15.0623V13.5747C4.23146 13.4605 4.32941 13.3679 4.45022 13.3679Z" fill="#0D986A"/>
<path d="M10.909 13.3679H12.482C12.6028 13.3679 12.7008 13.4606 12.7008 13.5748V15.0624C12.7008 15.1766 12.6028 15.2693 12.482 15.2693H10.909C10.7882 15.2693 10.6902 15.1766 10.6902 15.0624V13.5748C10.6902 13.4606 10.7882 13.3679 10.909 13.3679ZM12.2633 13.7817H11.1277V14.8555H12.2633V13.7817Z" fill="#0D986A"/>
<path d="M7.6796 13.3679H9.25268C9.37348 13.3679 9.47143 13.4606 9.47143 13.5748V15.0624C9.47143 15.1766 9.37348 15.2693 9.25268 15.2693H7.6796C7.5588 15.2693 7.46085 15.1766 7.46085 15.0624V13.5748C7.46085 13.4606 7.5588 13.3679 7.6796 13.3679ZM9.03393 13.7817H7.89836V14.8555H9.03393V13.7817Z" fill="#0D986A"/>
<path d="M7.41923 16.7568H6.28364V17.8307H7.41923V16.7568ZM6.06489 16.3431H7.63798C7.75878 16.3431 7.85673 16.4357 7.85673 16.5499V18.0375C7.85673 18.1518 7.75878 18.2444 7.63798 18.2444H6.06489C5.94408 18.2444 5.84613 18.1518 5.84613 18.0375V16.5499C5.84613 16.4357 5.94408 16.3431 6.06489 16.3431Z" fill="#0D986A"/>
<path d="M12.5236 16.3431H14.0967C14.2175 16.3431 14.3155 16.4357 14.3155 16.5499V18.0375C14.3155 18.1518 14.2175 18.2444 14.0967 18.2444H12.5236C12.4028 18.2444 12.3049 18.1518 12.3049 18.0375V16.5499C12.3049 16.4357 12.4028 16.3431 12.5236 16.3431ZM13.878 16.7568H12.7424V17.8307H13.878V16.7568Z" fill="#0D986A"/>
<path d="M9.29427 16.3431H10.8673C10.9882 16.3431 11.0861 16.4357 11.0861 16.5499V18.0375C11.0861 18.1518 10.9882 18.2444 10.8673 18.2444H9.29427C9.17347 18.2444 9.07552 18.1518 9.07552 18.0375V16.5499C9.07552 16.4357 9.17347 16.3431 9.29427 16.3431ZM10.6486 16.7568H9.51303V17.8307H10.6486V16.7568Z" fill="#0D986A"/>
<path d="M9.03394 19.732H7.89836V20.8059H9.03394V19.732ZM7.6796 19.3183H9.2527C9.3735 19.3183 9.47145 19.4109 9.47145 19.5251V21.0127C9.47145 21.127 9.3735 21.2196 9.2527 21.2196H7.6796C7.5588 21.2196 7.46085 21.127 7.46085 21.0127V19.5251C7.46085 19.4109 7.5588 19.3183 7.6796 19.3183Z" fill="#0D986A"/>
<path d="M10.909 19.3183H12.482C12.6028 19.3183 12.7008 19.4109 12.7008 19.5251V21.0127C12.7008 21.1269 12.6028 21.2196 12.482 21.2196H10.909C10.7882 21.2196 10.6902 21.1269 10.6902 21.0127V19.5251C10.6902 19.4109 10.7882 19.3183 10.909 19.3183ZM12.2633 19.732H11.1277V20.8058H12.2633V19.732Z" fill="#0D986A"/>
<path d="M13.745 8.99095C13.8954 8.6252 14.064 8.28095 14.2508 7.97511C14.2574 7.9643 14.2646 7.95332 14.27 7.94222C14.5362 7.51302 14.8357 7.16846 15.1665 6.9639C15.4596 6.78261 15.785 6.71748 16.142 6.81605C16.266 6.85029 16.3956 6.90348 16.531 6.97723C16.5388 6.98152 16.5464 6.98737 16.5544 6.99114C16.5772 7.00402 16.6004 7.01765 16.6239 7.03202C17.0355 7.28337 17.216 7.60343 17.229 7.96054C17.2404 8.27256 17.1382 8.62268 16.9554 8.99095H17.8988C18.0393 8.62875 18.113 8.27351 18.1006 7.93467C18.0777 7.30617 17.7777 6.75369 17.0956 6.3371C17.0643 6.31794 17.0308 6.29845 16.9953 6.27865C16.9865 6.273 16.9774 6.26759 16.968 6.26247C16.7702 6.15448 16.5745 6.07659 16.3846 6.02417C15.7566 5.85074 15.1914 5.96084 14.6879 6.27222C14.24 6.54926 13.8506 6.98977 13.5173 7.52748C13.5091 7.53832 13.5014 7.5496 13.4942 7.56138C13.2345 7.98682 13.0087 8.47564 12.8147 8.99095L13.745 8.99095Z" fill="#0D986A"/>
<path d="M15.6248 6.2809C15.5813 6.50491 15.7382 6.71983 15.9751 6.76087C16.212 6.80192 16.4393 6.65359 16.4827 6.42957L16.7816 4.88547L17.2789 5.63471C17.3718 5.77465 17.5376 5.84455 17.7003 5.82627L18.4328 5.80128L17.2072 7.06482C17.0439 7.2326 17.0554 7.49383 17.2328 7.64823C17.4103 7.80263 17.6865 7.79177 17.8498 7.62398L19.7628 5.65172C19.8494 5.57297 19.9014 5.46107 19.8968 5.33866C19.8881 5.11033 19.6852 4.9319 19.4438 4.94013L17.8842 4.99472L16.9421 3.57535C16.8818 3.46673 16.7711 3.38451 16.6335 3.36069C16.3959 3.31954 16.1679 3.46838 16.1244 3.69313L15.6248 6.2809Z" fill="#0D986A"/>
<path d="M2.36623 8.99095L2.35306 8.9818L2.34605 8.99095H2.36623ZM2.34605 8.99095L2.35306 8.9818C2.31756 8.95749 2.27975 8.93845 2.24038 8.92549C2.09742 8.84665 2.03767 8.38321 2.06356 7.93834C2.0726 7.78274 2.09606 7.63503 2.13443 7.50952C2.16611 7.40587 2.20595 7.32132 2.25334 7.26795C2.26332 7.25671 2.28091 7.25391 2.30799 7.26495C2.31362 7.26724 2.34086 7.30229 2.38101 7.3436C2.44933 7.41387 2.51977 7.48631 2.61242 7.55181C3.00572 7.82977 3.49077 7.89499 4.25363 6.92976C4.3579 6.79782 4.90368 7.13537 5.31432 7.38936C5.79148 7.68447 6.17772 7.92339 6.51579 7.64214C6.55322 7.61099 6.6116 7.55779 6.67522 7.49981C6.82853 7.3601 7.04019 7.16719 7.16172 7.12824C7.27933 7.32605 7.5163 7.45441 7.79574 7.53499C7.82766 7.5442 7.86027 7.55281 7.89329 7.56089V6.6048C7.86989 6.56811 7.84002 6.53427 7.8038 6.50482C7.14004 5.965 6.52879 6.48747 6.10693 6.87167L6.07022 6.90509C5.40367 6.40666 4.21037 5.6034 3.55294 6.43521C3.23226 6.84096 3.15548 6.9034 3.13539 6.8892C3.10364 6.86676 3.063 6.82495 3.0236 6.78443C2.91838 6.67618 2.81741 6.57232 2.6532 6.50538C2.20304 6.3218 1.84774 6.44017 1.58343 6.73785C1.45649 6.8808 1.36169 7.06853 1.29703 7.28004C1.23904 7.46974 1.20433 7.68033 1.19196 7.89308C1.17022 8.26652 1.22343 8.66204 1.34517 8.99095L2.34605 8.99095Z" fill="#0D986A"/>
</svg>
