<svg width="30" height="23" viewBox="0 0 30 23" fill="none" xmlns="http://www.w3.org/2000/svg">
<path d="M27.8843 16.3443C29.5335 15.247 29.691 13.2916 28.2323 11.9988L30 10.4317L28.2323 8.86462L26.4649 10.4317H26.4634C26.3854 10.3626 26.2965 10.3127 26.2133 10.2509C26.2256 10.1591 26.25 10.0617 26.25 9.97295C26.25 7.25665 24.0443 5.00808 21.135 4.53437C20.6003 1.95536 18.0626 0 15 0C12.4181 0 10.2026 1.38857 9.2505 3.36886C9.08212 3.35689 8.92088 3.32432 8.74988 3.32432C5.298 3.32432 2.50012 5.80459 2.50012 8.86462C2.50012 9.81704 2.79525 10.698 3.2715 11.4802C2.78325 12.3641 2.50012 13.3544 2.50012 14.4053C2.50012 15.6173 2.87212 16.7516 3.51187 17.7296H0V19.9459H2.50012L3.19088 21.1709C3.49838 21.7164 4.31288 22.1619 4.99988 22.1619H25.0001C25.6871 22.1619 26.5016 21.7161 26.8091 21.1709L27.4999 19.9459H30V17.7296H25.8008L27.8843 16.3443ZM24.696 11.9988L26.4634 13.5655C26.6516 13.7324 26.7442 13.9129 26.7296 14.0871C26.7161 14.2623 26.5954 14.4302 26.3827 14.5718L21.633 17.7296H18.7755L23.562 12.0689C23.7221 11.8818 23.91 11.7757 24.1076 11.7628C24.3053 11.7498 24.5093 11.8319 24.696 11.9988ZM8.74988 5.54064C8.82938 5.55792 8.93925 5.56989 9.05025 5.5772L10.8424 5.70486L11.5493 4.23883C12.141 3.0105 13.4959 2.21632 15 2.21632C16.8045 2.21632 18.3499 3.35922 18.6769 4.93461L18.9881 6.43754L20.6835 6.71346C22.3144 6.97973 23.5215 8.1592 23.7109 9.58766C22.9027 9.69171 22.1299 10.0703 21.5625 10.7402L17.352 15.7167C17.4487 15.2925 17.5001 14.854 17.5001 14.4053C17.5001 10.7326 14.1431 7.75663 10.0001 7.75663C8.10675 7.75663 6.38213 8.38326 5.06213 9.41014C5.02913 9.23063 4.99988 9.05111 4.99988 8.86462C4.99988 7.03159 6.68213 5.54064 8.74988 5.54064ZM4.99988 14.4053C4.99988 11.9576 7.239 9.97295 10.0001 9.97295C12.7612 9.97295 15 11.9576 15 14.4053C15 15.7363 14.3235 16.9171 13.2761 17.7296H6.72488C5.67638 16.9171 4.99988 15.7363 4.99988 14.4053Z" fill="#0D986A"/>
</svg>
