<svg width="19" height="20" viewBox="0 0 19 20" fill="none" xmlns="http://www.w3.org/2000/svg">
<path d="M9.42672 1.23445C10.3196 1.23445 11.176 1.5596 11.8073 2.13836C12.4387 2.71712 12.7934 3.50209 12.7934 4.32058V4.93781H6.06004V4.32058C6.06004 3.50209 6.41474 2.71712 7.04612 2.13836C7.67749 1.5596 8.53382 1.23445 9.42672 1.23445ZM14.1401 4.93781V4.32058C14.1401 3.17469 13.6435 2.07574 12.7596 1.26547C11.8756 0.455203 10.6768 0 9.42672 0C8.17666 0 6.9778 0.455203 6.09387 1.26547C5.20995 2.07574 4.71336 3.17469 4.71336 4.32058V4.93781H0V17.2823C0 17.9371 0.283763 18.5651 0.788864 19.0281C1.29396 19.4911 1.97903 19.7512 2.69335 19.7512H16.1601C16.8744 19.7512 17.5595 19.4911 18.0646 19.0281C18.5697 18.5651 18.8534 17.9371 18.8534 17.2823V4.93781H14.1401ZM1.34667 6.17226H17.5068V17.2823C17.5068 17.6097 17.3649 17.9237 17.1123 18.1552C16.8598 18.3867 16.5173 18.5168 16.1601 18.5168H2.69335C2.33619 18.5168 1.99366 18.3867 1.74111 18.1552C1.48856 17.9237 1.34667 17.6097 1.34667 17.2823V6.17226Z" fill="#435B71"/>
</svg>
