<?xml version="1.0" standalone="no"?>
<!DOCTYPE svg PUBLIC "-//W3C//DTD SVG 20010904//EN"
 "http://www.w3.org/TR/2001/REC-SVG-20010904/DTD/svg10.dtd">
<svg version="1.0" xmlns="http://www.w3.org/2000/svg"
 width="923.000000pt" height="725.000000pt" viewBox="0 0 923.000000 725.000000"
 preserveAspectRatio="xMidYMid meet">

<g transform="translate(0.000000,725.000000) scale(0.100000,-0.100000)"
fill="#000000" stroke="none">
<path d="M4305 6016 c-155 -134 -416 -401 -528 -541 -315 -393 -499 -793 -514
-1115 -2 -63 -6 -120 -8 -126 -2 -7 -30 -6 -91 3 -127 19 -649 28 -815 14
-165 -14 -302 -32 -311 -40 -13 -11 -37 -232 -49 -444 -25 -443 32 -907 151
-1226 130 -352 342 -604 623 -742 137 -67 217 -83 381 -76 96 4 156 13 225 32
202 55 409 154 610 291 l94 65 222 -221 c178 -177 225 -219 241 -214 10 4 118
105 239 225 l220 219 130 -85 c218 -145 453 -250 647 -289 99 -21 292 -21 378
0 90 21 233 92 327 163 325 245 519 654 589 1241 21 174 24 621 6 800 -21 198
-33 268 -48 274 -7 3 -78 13 -156 23 -203 25 -768 25 -948 0 -69 -10 -132 -20
-141 -22 -14 -5 -17 10 -22 102 -10 194 -57 364 -157 568 -164 334 -486 709
-881 1026 -128 103 -263 199 -280 199 -8 0 -68 -47 -134 -104z m266 -78 c241
-183 518 -446 672 -638 283 -351 444 -725 435 -1006 l-3 -87 -105 -28 c-321
-84 -571 -219 -748 -403 -96 -100 -149 -178 -213 -309 l-49 -102 3 214 2 215
295 233 c162 129 307 244 323 257 32 29 35 51 6 66 -27 15 -31 12 -359 -248
-175 -139 -267 -206 -272 -199 -4 7 -8 271 -8 588 0 623 2 605 -52 597 l-23
-3 -3 -317 c-1 -216 -6 -318 -13 -318 -6 0 -127 79 -270 176 -204 138 -265
175 -287 172 -19 -2 -28 -9 -30 -25 -3 -18 43 -52 287 -218 159 -108 294 -202
299 -208 5 -7 12 -214 16 -462 l7 -450 -43 77 c-63 114 -120 187 -222 286
-191 185 -454 316 -790 392 l-99 23 7 100 c13 206 63 382 171 602 123 252 314
512 575 779 204 210 355 340 378 327 9 -5 60 -42 113 -83z m2004 -1748 c207
-11 376 -28 389 -40 31 -30 56 -611 37 -855 -43 -543 -181 -930 -423 -1190
-166 -178 -364 -285 -554 -301 -170 -13 -396 45 -629 162 -126 63 -325 189
-332 209 -2 6 88 101 199 211 l203 202 343 -90 c189 -49 350 -87 358 -84 20 8
17 53 -4 65 -9 5 -150 43 -312 85 -162 42 -301 79 -309 82 -10 3 121 141 387
407 221 222 402 406 402 410 0 5 -5 17 -10 28 -24 43 -50 24 -291 -217 l-235
-235 -48 278 c-26 153 -53 284 -58 291 -13 16 -43 16 -56 -1 -8 -9 5 -101 43
-322 l54 -310 -366 -367 c-202 -202 -371 -364 -376 -361 -22 14 -153 228 -212
346 -103 207 -155 389 -155 542 l0 73 98 22 c250 57 525 174 677 287 100 74
198 179 248 264 43 73 94 223 103 304 5 38 12 56 23 59 39 12 265 38 389 45
197 11 218 12 417 1z m-3474 -26 c79 -9 147 -19 151 -23 4 -3 15 -44 23 -89
21 -110 68 -243 113 -317 142 -236 455 -412 888 -500 67 -14 133 -25 148 -25
26 0 26 0 26 -79 0 -160 -56 -356 -161 -561 -56 -110 -186 -321 -206 -333 -5
-3 -101 85 -212 197 l-203 203 90 344 c63 241 87 349 80 362 -10 20 -41 23
-56 4 -6 -7 -47 -151 -91 -321 -44 -169 -82 -311 -86 -314 -3 -3 -185 173
-403 391 -283 283 -403 397 -419 397 -20 0 -43 -25 -43 -46 0 -5 106 -115 236
-245 l236 -237 -48 -10 c-27 -5 -150 -27 -274 -48 -124 -20 -231 -42 -237 -47
-17 -13 -16 -56 1 -63 7 -3 144 18 304 45 160 28 299 51 309 51 17 0 743 -716
743 -733 0 -16 -218 -150 -352 -216 -212 -106 -380 -153 -548 -154 -123 -1
-194 15 -305 67 -478 226 -745 831 -745 1690 0 190 29 578 44 593 3 3 301 33
376 37 129 7 480 -4 621 -20z m370 -65 c378 -93 677 -283 845 -535 39 -60 109
-205 118 -246 5 -24 3 -28 -15 -28 -48 0 -276 52 -386 89 -303 99 -509 251
-602 443 -37 78 -71 184 -86 271 -7 43 -21 42 126 6z m2199 3 c0 -41 -43 -181
-76 -249 -92 -189 -334 -366 -655 -478 -107 -37 -299 -89 -305 -82 -7 7 28
112 58 172 150 296 453 519 856 630 108 29 122 30 122 7z m-964 -1548 c32 -65
96 -174 141 -243 46 -69 83 -128 83 -131 0 -3 -78 -83 -173 -178 l-174 -174
-6 294 c-4 161 -7 401 -7 533 l1 240 38 -112 c21 -61 64 -164 97 -229z m-212
-734 c-5 -5 -354 341 -354 351 0 4 33 57 74 118 85 127 188 325 237 456 l34
89 7 -504 c3 -278 4 -507 2 -510z"/>
</g>
</svg>
