<svg width="22" height="23" viewBox="0 0 22 23" fill="none" xmlns="http://www.w3.org/2000/svg">
<path d="M12.1 15.4289H5.50001C5.20827 15.4289 4.92848 15.545 4.72219 15.7516C4.5159 15.9582 4.40001 16.2385 4.40001 16.5307C4.40001 16.8229 4.5159 17.1031 4.72219 17.3097C4.92848 17.5164 5.20827 17.6324 5.50001 17.6324H12.1C12.3917 17.6324 12.6715 17.5164 12.8778 17.3097C13.0841 17.1031 13.2 16.8229 13.2 16.5307C13.2 16.2385 13.0841 15.9582 12.8778 15.7516C12.6715 15.545 12.3917 15.4289 12.1 15.4289ZM7.70001 8.81841H9.9C10.1917 8.81841 10.4715 8.70233 10.6778 8.49571C10.8841 8.28909 11 8.00886 11 7.71666C11 7.42445 10.8841 7.14422 10.6778 6.9376C10.4715 6.73098 10.1917 6.6149 9.9 6.6149H7.70001C7.40827 6.6149 7.12848 6.73098 6.92219 6.9376C6.7159 7.14422 6.60001 7.42445 6.60001 7.71666C6.60001 8.00886 6.7159 8.28909 6.92219 8.49571C7.12848 8.70233 7.40827 8.81841 7.70001 8.81841ZM20.9 11.0219H17.6V1.10613C17.6008 0.911993 17.5503 0.721096 17.4537 0.552773C17.3571 0.384449 17.2179 0.244676 17.05 0.147607C16.8828 0.050908 16.6931 0 16.5 0C16.3069 0 16.1172 0.050908 15.95 0.147607L12.65 2.04262L9.35 0.147607C9.18278 0.050908 8.9931 0 8.8 0C8.60691 0 8.41723 0.050908 8.25001 0.147607L4.95001 2.04262L1.65001 0.147607C1.48279 0.050908 1.2931 0 1.10001 0C0.906918 0 0.717229 0.050908 0.550008 0.147607C0.382144 0.244676 0.242868 0.384449 0.146285 0.552773C0.049701 0.721096 -0.000760853 0.911993 8.67117e-06 1.10613V18.7342C8.67117e-06 19.6108 0.347686 20.4515 0.966556 21.0714C1.58543 21.6912 2.42479 22.0395 3.30001 22.0395H18.7C19.5752 22.0395 20.4146 21.6912 21.0335 21.0714C21.6523 20.4515 22 19.6108 22 18.7342V12.1237C22 11.8315 21.8841 11.5512 21.6778 11.3446C21.4715 11.138 21.1917 11.0219 20.9 11.0219ZM3.30001 19.836C3.00827 19.836 2.72848 19.7199 2.52219 19.5133C2.3159 19.3066 2.20001 19.0264 2.20001 18.7342V3.01217L4.40001 4.26817C4.56978 4.35698 4.75847 4.40337 4.95001 4.40337C5.14154 4.40337 5.33024 4.35698 5.50001 4.26817L8.8 2.37315L12.1 4.26817C12.2698 4.35698 12.4585 4.40337 12.65 4.40337C12.8415 4.40337 13.0302 4.35698 13.2 4.26817L15.4 3.01217V18.7342C15.403 19.1101 15.4699 19.4826 15.598 19.836H3.30001ZM19.8 18.7342C19.8 19.0264 19.6841 19.3066 19.4778 19.5133C19.2715 19.7199 18.9917 19.836 18.7 19.836C18.4083 19.836 18.1285 19.7199 17.9222 19.5133C17.7159 19.3066 17.6 19.0264 17.6 18.7342V13.2254H19.8V18.7342ZM12.1 11.0219H5.50001C5.20827 11.0219 4.92848 11.138 4.72219 11.3446C4.5159 11.5512 4.40001 11.8315 4.40001 12.1237C4.40001 12.4159 4.5159 12.6961 4.72219 12.9027C4.92848 13.1093 5.20827 13.2254 5.50001 13.2254H12.1C12.3917 13.2254 12.6715 13.1093 12.8778 12.9027C13.0841 12.6961 13.2 12.4159 13.2 12.1237C13.2 11.8315 13.0841 11.5512 12.8778 11.3446C12.6715 11.138 12.3917 11.0219 12.1 11.0219Z" fill="#435B71"/>
</svg>
