<svg width="26" height="24" viewBox="0 0 26 24" fill="none" xmlns="http://www.w3.org/2000/svg">
<path fill-rule="evenodd" clip-rule="evenodd" d="M0.00100765 2.76115C0.103784 4.71663 0.628202 5.92716 1.3962 6.67314C1.02122 6.96954 0.80382 7.46707 0.883639 8.00501C1.27552 10.6461 2.25525 16.2326 4.26364 22.5296C4.6628 23.7812 6.25706 23.7812 6.65622 22.5296C8.66457 16.2326 9.64434 10.6461 10.0362 8.00501C10.116 7.46707 9.89863 6.96954 9.52363 6.67307C10.2916 5.92716 10.816 4.71663 10.9188 2.76115C10.9399 2.36047 10.6297 2.03043 10.2516 2.03617C9.13693 2.05317 8.25158 2.12504 7.56088 2.37145C7.27578 1.57329 6.70018 0.81973 5.83393 0.131811C5.61265 -0.0439369 5.30714 -0.0439369 5.08586 0.131811C4.22666 0.814142 3.65332 1.56101 3.3659 2.35197C2.69517 2.14204 1.81685 2.05877 0.669939 2.03748C0.291863 2.03043 -0.0200529 2.36047 0.00100765 2.76115ZM6.74769 4.19475L6.28047 2.88657C6.15107 2.52441 5.89822 2.11712 5.45989 1.68752C5.02615 2.11261 4.77406 2.51583 4.64349 2.87501L4.18928 4.12485L2.97855 3.7459C2.62139 3.63414 2.13369 3.55952 1.44852 3.51977C1.65208 4.92082 2.14138 5.51297 2.58743 5.81918C3.22521 6.25691 4.1545 6.39011 5.43942 6.39149H5.48037C6.76536 6.39011 7.6946 6.25691 8.33237 5.81918C8.77884 5.51268 9.26866 4.91973 9.47187 3.51577C8.80788 3.55269 8.34175 3.62608 7.99722 3.74896L6.74769 4.19475ZM2.24612 7.84479H8.67375C8.47759 9.15813 8.13703 11.1868 7.59895 13.658H4.77515V15.1113H7.27079C6.79788 17.133 6.20235 19.3858 5.45989 21.7456C5.21738 20.9746 4.99048 20.215 4.77844 19.4712H5.45983V18.0179H4.37709C3.72151 15.5662 3.23103 13.3295 2.87249 11.478H4.77515V10.0247H2.603C2.45164 9.17005 2.33428 8.43519 2.24612 7.84479Z" fill="#0D986A"/>
<path d="M22.7427 14.4063C23.1095 14.5037 23.3326 14.8982 23.2408 15.2875C22.8372 17.0012 21.6187 18.2944 20.004 18.7228C19.6371 18.8202 19.2654 18.5834 19.1738 18.1941C19.082 17.8048 19.3051 17.4103 19.6719 17.3129C20.7959 17.0147 21.6314 16.1279 21.9124 14.935C22.0041 14.5457 22.3758 14.309 22.7427 14.4063Z" fill="#0D986A"/>
<path fill-rule="evenodd" clip-rule="evenodd" d="M18.9142 9.318C18.155 7.43387 18.2866 5.43231 19.6374 3.9987L18.6692 2.97108C17.0743 4.66366 16.7973 6.87856 17.3323 8.91354C14.1994 7.40923 10.9372 10.1757 10.9372 14.3846C10.9372 18.3978 14.3092 21.6511 18.4686 21.6511C22.6281 21.6511 26 18.3978 26 14.3846C26 9.86473 22.2381 7.00841 18.9142 9.318ZM18.4686 11.5225L17.6132 10.7962C16.3411 9.71613 15.0878 9.77615 14.1388 10.3983C13.1353 11.0561 12.3066 12.4645 12.3066 14.3846C12.3066 17.4679 14.9397 20.1978 18.4686 20.1978C21.9976 20.1978 24.6307 17.4679 24.6307 14.3846C24.6307 12.4645 23.8019 11.0561 22.7985 10.3983C21.8494 9.77615 20.5961 9.71613 19.3241 10.7962L18.4686 11.5225Z" fill="#0D986A"/>
<path d="M19.838 7.11814C21.892 7.11814 23.2613 5.66484 23.2613 3.48489C21.2073 3.48489 19.838 4.93819 19.838 7.11814Z" fill="#0D986A"/>
</svg>
